<svg width="871" height="518" viewBox="0 0 871 518" fill="none" xmlns="http://www.w3.org/2000/svg">
<path d="M216.917 486.421L210.743 500.141C191.182 529.455 159.261 512.218 156.54 480.684C151.713 424.65 160.159 361.672 156.694 304.918C163.92 269.637 206.905 255.339 233.885 279.776C238.005 283.51 247.722 298.411 247.722 303.532V351.661H216.917V312.516C216.917 307.344 211.449 300.015 205.943 299.117C192.235 296.897 188.217 305.56 187.344 317.598C183.75 367.165 189.899 421.326 187.704 471.354C189.988 484.933 206.52 490.592 214.157 477.886C214.671 477.039 216.917 472.008 216.917 471.662V406.848H201.514V376.046H247.722V514.657H216.917V486.421Z" fill="url(#paint0_linear_723_6)"/>
<path d="M870.234 351.661H838.146V308.666C838.146 307.6 833.667 302.518 832.37 301.607C823.488 295.318 811.141 300.516 809.883 311.207C808.06 326.634 808.291 346.386 817.083 359.246C835.451 386.121 867.398 402.446 870.286 439.525C872.609 469.326 871.107 504.531 836.888 514.028C809.511 521.626 777.82 501.335 777.82 471.649V431.221H809.908V474.216C809.908 474.986 813.849 481.031 815.055 481.904C824.528 488.77 836.824 483.277 838.146 471.649C839.019 463.91 838.942 446.16 838.005 438.421C835.759 419.901 804.21 395.657 792.696 379.768C768.078 345.808 768.322 267.724 823.386 267.211C843.55 267.018 870.234 286 870.234 307.37V351.661Z" fill="url(#paint1_linear_723_6)"/>
<path d="M32.0883 0V211.125C32.0883 211.356 35.0661 214.333 35.2971 214.333H74.4448V245.136H18.6112C17.6101 245.136 10.3838 241.709 8.93339 240.695C6.23797 238.808 0 230.851 0 227.809V0H32.0883Z" fill="url(#paint2_linear_723_6)"/>
<path d="M762.418 269.521V300.323H735.464V465.886H703.375V300.323H676.421V269.521H762.418Z" fill="url(#paint3_linear_723_6)"/>
<path d="M338.852 133.477V160.429H275.959V177.114H332.435L331.151 200.216H275.959C276.075 203.257 274.663 218.184 279.168 218.184H338.852V245.136H265.049C258.606 245.136 246.438 232.917 246.438 226.526V133.477H338.852Z" fill="url(#paint4_linear_723_6)"/>
<path d="M139.905 269.521V512.732C139.905 512.873 138.121 514.657 137.98 514.657H109.742C109.601 514.657 107.817 512.873 107.817 512.732V269.521H139.905Z" fill="url(#paint5_linear_723_6)"/>
<path d="M121.936 0H91.1307V245.136H121.936V0Z" fill="url(#paint6_linear_723_6)"/>
<path d="M275.959 0V81.498C275.959 81.729 278.937 84.7066 279.168 84.7066H338.852V111.659H263.766C260.711 111.659 252.766 105.421 250.879 102.726C249.865 101.276 246.438 94.0372 246.438 93.0489V0H275.959Z" fill="url(#paint7_linear_723_6)"/>
<path d="M231.036 0V26.9521H198.947V111.659H170.71V31.4441C170.71 30.5329 169.76 26.9521 168.784 26.9521H138.621V0H231.036Z" fill="url(#paint8_linear_723_6)"/>
<path d="M231.036 133.477V160.429H198.947V245.136H170.71V160.429H138.621V133.477H231.036Z" fill="url(#paint9_linear_723_6)"/>
<path d="M762.418 483.854V512.732C762.418 512.873 760.634 514.657 760.493 514.657H678.346C678.205 514.657 676.421 512.873 676.421 512.732V483.854H762.418Z" fill="url(#paint10_linear_723_6)"/>
<path d="M504.081 273.679C530.009 268.289 534.745 305.213 512.476 309.025C488.936 313.055 483.891 277.876 504.081 273.679Z" fill="url(#paint11_linear_723_6)"/>
<path d="M427.082 399.443C456.09 394.45 455.217 440.564 427.057 434.789C407.855 430.849 409.678 402.446 427.082 399.443Z" fill="url(#paint12_linear_723_6)"/>
<path d="M554.139 477.745C580.554 472.252 584.033 511.038 560.108 513.322C538.172 515.414 533.603 482.019 554.139 477.745Z" fill="url(#paint13_linear_723_6)"/>
<path d="M632.435 351.956C657.874 346.784 662.495 385.274 638.403 387.533C615.659 389.663 612.078 356.089 632.435 351.956Z" fill="url(#paint14_linear_723_6)"/>
<path d="M513.092 471.302C532.717 468.068 536.696 497.882 517.802 500.488C498.909 503.093 494.827 474.319 513.092 471.302Z" fill="url(#paint15_linear_723_6)"/>
<path d="M547.696 286.488C568.669 281.662 573.2 311.887 554.819 315.455C536.439 319.023 530.625 290.415 547.696 286.488Z" fill="url(#paint16_linear_723_6)"/>
<path d="M436.029 359.631C455.23 355.267 461.751 382.823 445.18 388.033C423.899 394.72 419.06 363.481 436.029 359.631Z" fill="url(#paint17_linear_723_6)"/>
<path d="M463.008 286.514C485.624 281.919 487.575 314.416 467.693 315.699C450.468 316.803 446.682 289.838 463.008 286.514Z" fill="url(#paint18_linear_723_6)"/>
<path d="M597.805 471.29C617.777 467.452 621.704 498.255 602.49 500.449C583.417 502.618 580.49 474.614 597.805 471.29Z" fill="url(#paint19_linear_723_6)"/>
<path d="M637.479 338.39C624.323 350.762 604.03 331.498 616.057 317.611C628.892 302.788 652.637 324.144 637.479 338.39Z" fill="url(#paint20_linear_723_6)"/>
<path d="M623.424 398.147C643.537 393.475 648.915 423.033 630.574 427.14C612.091 431.285 606.238 402.138 623.424 398.147Z" fill="url(#paint21_linear_723_6)"/>
<path d="M438.673 444.312C460.262 441.886 459.35 477.052 437.12 473.523C422.551 471.213 421.319 446.263 438.673 444.312Z" fill="url(#paint22_linear_723_6)"/>
<path d="M482.248 453.309C499.024 449.535 500.244 475.653 483.365 473.561C472.584 472.227 472.455 455.503 482.248 453.309Z" fill="url(#paint23_linear_723_6)"/>
<path d="M433.487 313.414C448.723 310.09 451.662 331.832 437.992 333.462C424.066 335.117 422.295 315.866 433.487 313.414Z" fill="url(#paint24_linear_723_6)"/>
<path d="M628.571 453.296C641.394 450.472 645.847 467.349 637.004 472.021C621.73 480.081 614.516 456.389 628.571 453.296Z" fill="url(#paint25_linear_723_6)"/>
<path d="M597.202 289.132C603.786 282.561 616.172 287.617 614.786 298.283C612.424 316.52 583.956 302.351 597.202 289.132Z" fill="url(#paint26_linear_723_6)"/>
<path d="M578.501 313.427C593.659 308.845 598.036 330.638 584.353 333.475C570.671 336.311 568.271 316.52 578.501 313.427Z" fill="url(#paint27_linear_723_6)"/>
<path d="M470.697 351.301C462.623 359.387 447.619 350.069 454.306 338.121C461.43 325.376 480.978 340.995 470.697 351.301Z" fill="url(#paint28_linear_723_6)"/>
<path d="M597.202 450.126C588.358 441.283 601.091 425.664 611.629 435.058C622.256 444.53 606.725 459.662 597.202 450.126Z" fill="url(#paint29_linear_723_6)"/>
<path d="M459.145 480.274C477.538 476.103 477.063 501.707 461.597 500.154C451.174 499.115 449.711 482.404 459.145 480.274Z" fill="url(#paint30_linear_723_6)"/>
<path d="M643.37 442.477C637.543 436.727 648.055 427.743 653.446 434.327C658.285 440.243 649.082 448.098 643.37 442.477Z" fill="url(#paint31_linear_723_6)"/>
<path d="M484.713 502.002C496.123 498.165 497.792 514.888 487.177 513.412C481.517 512.629 480.939 503.26 484.713 502.002Z" fill="url(#paint32_linear_723_6)"/>
<path d="M463.547 433.993C466.346 429.514 480.131 434.25 473.739 442.271C468.733 448.56 459.838 439.897 463.547 433.993Z" fill="url(#paint33_linear_723_6)"/>
<path d="M573.931 283.459C570.222 277.555 579.117 268.892 584.122 275.181C590.514 283.215 576.729 287.938 573.931 283.459Z" fill="url(#paint34_linear_723_6)"/>
<path d="M416.776 342.895C424.541 340.585 428.712 350.403 422.282 353.599C413.49 357.975 409.806 344.961 416.776 342.895Z" fill="url(#paint35_linear_723_6)"/>
<path d="M486.086 322.36C496.29 319.344 497.343 335.143 487.177 333.731C481.222 332.897 480.939 323.887 486.086 322.36Z" fill="url(#paint36_linear_723_6)"/>
<path d="M577.217 453.27C587.421 450.254 588.474 466.053 578.308 464.641C572.352 463.807 572.07 454.798 577.217 453.27Z" fill="url(#paint37_linear_723_6)"/>
<path d="M596.47 342.895C607.483 339.635 606.79 357.09 596.47 353.997C591.644 352.546 591.657 344.32 596.47 342.895Z" fill="url(#paint38_linear_723_6)"/>
<path d="M512.001 324.58C510.011 327.468 500.808 325.312 503.735 319.588C507.098 313.004 514.658 320.743 512.001 324.58Z" fill="url(#paint39_linear_723_6)"/>
<path d="M563.291 277.042C559.671 279.339 553.01 275.412 556.321 270.727C560.21 265.234 568.682 273.615 563.291 277.042Z" fill="url(#paint40_linear_723_6)"/>
<path d="M510.692 509.677C515.197 512.501 508.086 522.088 503.696 516.03C500.346 511.384 507.072 507.406 510.692 509.677Z" fill="url(#paint41_linear_723_6)"/>
<path d="M600.86 364.675C603.183 360.953 611.359 366.035 607.829 370.989C604.582 375.546 597.908 369.411 600.86 364.675Z" fill="url(#paint42_linear_723_6)"/>
<path d="M563.137 468.158C559.299 472.15 551.765 464.693 558.336 461.356C562.7 459.136 566.525 464.641 563.137 468.158Z" fill="url(#paint43_linear_723_6)"/>
<path d="M465.742 422.07C460.942 425.125 454.383 418.258 460.814 415.114C465.088 413.035 469.208 419.862 465.742 422.07Z" fill="url(#paint44_linear_723_6)"/>
<path d="M415.864 364.495C416.224 364.854 415.993 369.847 415.261 370.938C412.758 374.724 406.135 369.321 408.754 365.714C409.793 364.213 415.466 364.084 415.864 364.495Z" fill="url(#paint45_linear_723_6)"/>
<path d="M657.04 414.69C660.159 416.641 657.746 425.741 651.957 421.685C647.927 418.861 652.702 411.982 657.04 414.69Z" fill="url(#paint46_linear_723_6)"/>
<path d="M0.0125345 269.508C18.2002 271.279 40.7775 267.134 58.4132 269.508L58.4007 269.521C79.1422 272.306 91.0151 291.801 92.4657 311.181C94.1214 333.294 93.6071 369.565 73.5712 383.515C70.0669 385.954 60.9156 388.457 60.4664 389.009C56.283 394.129 67.3976 395.387 70.6707 397.146C96.2514 410.955 94.3778 446.173 92.4782 471.7C90.861 493.416 75.7794 514.644 51.9956 514.644H1.93783C1.79664 514.644 0.0125345 512.86 0.0125345 512.719V269.508ZM60.3774 425.406C59.0167 406.951 48.2863 406.078 32.0883 406.848V483.868C46.3867 484.445 58.4775 482.943 60.326 466.541C61.4812 456.325 61.1603 435.918 60.3774 425.406ZM60.3774 318.881C58.991 300.08 48.6585 299.129 32.0883 300.323V376.059C45.6679 376.868 58.593 376.226 60.326 360.016C61.4427 349.608 61.1603 329.547 60.3774 318.881Z" fill="url(#paint47_linear_723_6)"/>
<path d="M354.897 269.521C367.732 269.521 390.655 291.25 391.117 305.175C391.348 357.129 396.393 414.857 392.812 466.58C391.028 492.3 373.405 514.657 345.912 514.657H302.272C302.131 514.657 300.347 512.874 300.346 512.732V269.521H354.897ZM360.596 312.593C357.451 298.244 344.192 300.028 332.435 300.324V482.571H351.058C354.254 482.571 361.238 472.983 360.711 469.12L360.596 312.593Z" fill="url(#paint48_linear_723_6)"/>
<defs>
<linearGradient id="paint0_linear_723_6" x1="-78.2954" y1="294.445" x2="1194.97" y2="281.609" gradientUnits="userSpaceOnUse">
<stop offset="0.0313603" stop-color="#FD4A81"/>
<stop offset="1" stop-color="#9434E9"/>
</linearGradient>
<linearGradient id="paint1_linear_723_6" x1="-78.2954" y1="294.445" x2="1194.97" y2="281.609" gradientUnits="userSpaceOnUse">
<stop offset="0.0313603" stop-color="#FD4A81"/>
<stop offset="1" stop-color="#9434E9"/>
</linearGradient>
<linearGradient id="paint2_linear_723_6" x1="-78.2954" y1="294.445" x2="1194.97" y2="281.609" gradientUnits="userSpaceOnUse">
<stop offset="0.0313603" stop-color="#FD4A81"/>
<stop offset="1" stop-color="#9434E9"/>
</linearGradient>
<linearGradient id="paint3_linear_723_6" x1="-78.2954" y1="294.445" x2="1194.97" y2="281.609" gradientUnits="userSpaceOnUse">
<stop offset="0.0313603" stop-color="#FD4A81"/>
<stop offset="1" stop-color="#9434E9"/>
</linearGradient>
<linearGradient id="paint4_linear_723_6" x1="-78.2954" y1="294.445" x2="1194.97" y2="281.609" gradientUnits="userSpaceOnUse">
<stop offset="0.0313603" stop-color="#FD4A81"/>
<stop offset="1" stop-color="#9434E9"/>
</linearGradient>
<linearGradient id="paint5_linear_723_6" x1="-78.2954" y1="294.445" x2="1194.97" y2="281.609" gradientUnits="userSpaceOnUse">
<stop offset="0.0313603" stop-color="#FD4A81"/>
<stop offset="1" stop-color="#9434E9"/>
</linearGradient>
<linearGradient id="paint6_linear_723_6" x1="-78.2954" y1="294.445" x2="1194.97" y2="281.609" gradientUnits="userSpaceOnUse">
<stop offset="0.0313603" stop-color="#FD4A81"/>
<stop offset="1" stop-color="#9434E9"/>
</linearGradient>
<linearGradient id="paint7_linear_723_6" x1="-78.2954" y1="294.445" x2="1194.97" y2="281.609" gradientUnits="userSpaceOnUse">
<stop offset="0.0313603" stop-color="#FD4A81"/>
<stop offset="1" stop-color="#9434E9"/>
</linearGradient>
<linearGradient id="paint8_linear_723_6" x1="-78.2954" y1="294.445" x2="1194.97" y2="281.609" gradientUnits="userSpaceOnUse">
<stop offset="0.0313603" stop-color="#FD4A81"/>
<stop offset="1" stop-color="#9434E9"/>
</linearGradient>
<linearGradient id="paint9_linear_723_6" x1="-78.2954" y1="294.445" x2="1194.97" y2="281.609" gradientUnits="userSpaceOnUse">
<stop offset="0.0313603" stop-color="#FD4A81"/>
<stop offset="1" stop-color="#9434E9"/>
</linearGradient>
<linearGradient id="paint10_linear_723_6" x1="-78.2954" y1="294.445" x2="1194.97" y2="281.609" gradientUnits="userSpaceOnUse">
<stop offset="0.0313603" stop-color="#FD4A81"/>
<stop offset="1" stop-color="#9434E9"/>
</linearGradient>
<linearGradient id="paint11_linear_723_6" x1="-78.2954" y1="294.445" x2="1194.97" y2="281.609" gradientUnits="userSpaceOnUse">
<stop offset="0.0313603" stop-color="#FD4A81"/>
<stop offset="1" stop-color="#9434E9"/>
</linearGradient>
<linearGradient id="paint12_linear_723_6" x1="-78.2954" y1="294.445" x2="1194.97" y2="281.609" gradientUnits="userSpaceOnUse">
<stop offset="0.0313603" stop-color="#FD4A81"/>
<stop offset="1" stop-color="#9434E9"/>
</linearGradient>
<linearGradient id="paint13_linear_723_6" x1="-78.2954" y1="294.445" x2="1194.97" y2="281.609" gradientUnits="userSpaceOnUse">
<stop offset="0.0313603" stop-color="#FD4A81"/>
<stop offset="1" stop-color="#9434E9"/>
</linearGradient>
<linearGradient id="paint14_linear_723_6" x1="-78.2954" y1="294.445" x2="1194.97" y2="281.609" gradientUnits="userSpaceOnUse">
<stop offset="0.0313603" stop-color="#FD4A81"/>
<stop offset="1" stop-color="#9434E9"/>
</linearGradient>
<linearGradient id="paint15_linear_723_6" x1="-78.2954" y1="294.445" x2="1194.97" y2="281.609" gradientUnits="userSpaceOnUse">
<stop offset="0.0313603" stop-color="#FD4A81"/>
<stop offset="1" stop-color="#9434E9"/>
</linearGradient>
<linearGradient id="paint16_linear_723_6" x1="-78.2954" y1="294.445" x2="1194.97" y2="281.609" gradientUnits="userSpaceOnUse">
<stop offset="0.0313603" stop-color="#FD4A81"/>
<stop offset="1" stop-color="#9434E9"/>
</linearGradient>
<linearGradient id="paint17_linear_723_6" x1="-78.2954" y1="294.445" x2="1194.97" y2="281.609" gradientUnits="userSpaceOnUse">
<stop offset="0.0313603" stop-color="#FD4A81"/>
<stop offset="1" stop-color="#9434E9"/>
</linearGradient>
<linearGradient id="paint18_linear_723_6" x1="-78.2954" y1="294.445" x2="1194.97" y2="281.609" gradientUnits="userSpaceOnUse">
<stop offset="0.0313603" stop-color="#FD4A81"/>
<stop offset="1" stop-color="#9434E9"/>
</linearGradient>
<linearGradient id="paint19_linear_723_6" x1="-78.2954" y1="294.445" x2="1194.97" y2="281.609" gradientUnits="userSpaceOnUse">
<stop offset="0.0313603" stop-color="#FD4A81"/>
<stop offset="1" stop-color="#9434E9"/>
</linearGradient>
<linearGradient id="paint20_linear_723_6" x1="-78.2954" y1="294.445" x2="1194.97" y2="281.609" gradientUnits="userSpaceOnUse">
<stop offset="0.0313603" stop-color="#FD4A81"/>
<stop offset="1" stop-color="#9434E9"/>
</linearGradient>
<linearGradient id="paint21_linear_723_6" x1="-78.2954" y1="294.445" x2="1194.97" y2="281.609" gradientUnits="userSpaceOnUse">
<stop offset="0.0313603" stop-color="#FD4A81"/>
<stop offset="1" stop-color="#9434E9"/>
</linearGradient>
<linearGradient id="paint22_linear_723_6" x1="-78.2954" y1="294.445" x2="1194.97" y2="281.609" gradientUnits="userSpaceOnUse">
<stop offset="0.0313603" stop-color="#FD4A81"/>
<stop offset="1" stop-color="#9434E9"/>
</linearGradient>
<linearGradient id="paint23_linear_723_6" x1="-78.2954" y1="294.445" x2="1194.97" y2="281.609" gradientUnits="userSpaceOnUse">
<stop offset="0.0313603" stop-color="#FD4A81"/>
<stop offset="1" stop-color="#9434E9"/>
</linearGradient>
<linearGradient id="paint24_linear_723_6" x1="-78.2954" y1="294.445" x2="1194.97" y2="281.609" gradientUnits="userSpaceOnUse">
<stop offset="0.0313603" stop-color="#FD4A81"/>
<stop offset="1" stop-color="#9434E9"/>
</linearGradient>
<linearGradient id="paint25_linear_723_6" x1="-78.2954" y1="294.445" x2="1194.97" y2="281.609" gradientUnits="userSpaceOnUse">
<stop offset="0.0313603" stop-color="#FD4A81"/>
<stop offset="1" stop-color="#9434E9"/>
</linearGradient>
<linearGradient id="paint26_linear_723_6" x1="-78.2954" y1="294.445" x2="1194.97" y2="281.609" gradientUnits="userSpaceOnUse">
<stop offset="0.0313603" stop-color="#FD4A81"/>
<stop offset="1" stop-color="#9434E9"/>
</linearGradient>
<linearGradient id="paint27_linear_723_6" x1="-78.2954" y1="294.445" x2="1194.97" y2="281.609" gradientUnits="userSpaceOnUse">
<stop offset="0.0313603" stop-color="#FD4A81"/>
<stop offset="1" stop-color="#9434E9"/>
</linearGradient>
<linearGradient id="paint28_linear_723_6" x1="-78.2954" y1="294.445" x2="1194.97" y2="281.609" gradientUnits="userSpaceOnUse">
<stop offset="0.0313603" stop-color="#FD4A81"/>
<stop offset="1" stop-color="#9434E9"/>
</linearGradient>
<linearGradient id="paint29_linear_723_6" x1="-78.2954" y1="294.445" x2="1194.97" y2="281.609" gradientUnits="userSpaceOnUse">
<stop offset="0.0313603" stop-color="#FD4A81"/>
<stop offset="1" stop-color="#9434E9"/>
</linearGradient>
<linearGradient id="paint30_linear_723_6" x1="-78.2954" y1="294.445" x2="1194.97" y2="281.609" gradientUnits="userSpaceOnUse">
<stop offset="0.0313603" stop-color="#FD4A81"/>
<stop offset="1" stop-color="#9434E9"/>
</linearGradient>
<linearGradient id="paint31_linear_723_6" x1="-78.2954" y1="294.445" x2="1194.97" y2="281.609" gradientUnits="userSpaceOnUse">
<stop offset="0.0313603" stop-color="#FD4A81"/>
<stop offset="1" stop-color="#9434E9"/>
</linearGradient>
<linearGradient id="paint32_linear_723_6" x1="-78.2954" y1="294.445" x2="1194.97" y2="281.609" gradientUnits="userSpaceOnUse">
<stop offset="0.0313603" stop-color="#FD4A81"/>
<stop offset="1" stop-color="#9434E9"/>
</linearGradient>
<linearGradient id="paint33_linear_723_6" x1="-78.2954" y1="294.445" x2="1194.97" y2="281.609" gradientUnits="userSpaceOnUse">
<stop offset="0.0313603" stop-color="#FD4A81"/>
<stop offset="1" stop-color="#9434E9"/>
</linearGradient>
<linearGradient id="paint34_linear_723_6" x1="-78.2954" y1="294.445" x2="1194.97" y2="281.609" gradientUnits="userSpaceOnUse">
<stop offset="0.0313603" stop-color="#FD4A81"/>
<stop offset="1" stop-color="#9434E9"/>
</linearGradient>
<linearGradient id="paint35_linear_723_6" x1="-78.2954" y1="294.445" x2="1194.97" y2="281.609" gradientUnits="userSpaceOnUse">
<stop offset="0.0313603" stop-color="#FD4A81"/>
<stop offset="1" stop-color="#9434E9"/>
</linearGradient>
<linearGradient id="paint36_linear_723_6" x1="-78.2954" y1="294.445" x2="1194.97" y2="281.609" gradientUnits="userSpaceOnUse">
<stop offset="0.0313603" stop-color="#FD4A81"/>
<stop offset="1" stop-color="#9434E9"/>
</linearGradient>
<linearGradient id="paint37_linear_723_6" x1="-78.2954" y1="294.445" x2="1194.97" y2="281.609" gradientUnits="userSpaceOnUse">
<stop offset="0.0313603" stop-color="#FD4A81"/>
<stop offset="1" stop-color="#9434E9"/>
</linearGradient>
<linearGradient id="paint38_linear_723_6" x1="-78.2954" y1="294.445" x2="1194.97" y2="281.609" gradientUnits="userSpaceOnUse">
<stop offset="0.0313603" stop-color="#FD4A81"/>
<stop offset="1" stop-color="#9434E9"/>
</linearGradient>
<linearGradient id="paint39_linear_723_6" x1="-78.2954" y1="294.445" x2="1194.97" y2="281.609" gradientUnits="userSpaceOnUse">
<stop offset="0.0313603" stop-color="#FD4A81"/>
<stop offset="1" stop-color="#9434E9"/>
</linearGradient>
<linearGradient id="paint40_linear_723_6" x1="-78.2954" y1="294.445" x2="1194.97" y2="281.609" gradientUnits="userSpaceOnUse">
<stop offset="0.0313603" stop-color="#FD4A81"/>
<stop offset="1" stop-color="#9434E9"/>
</linearGradient>
<linearGradient id="paint41_linear_723_6" x1="-78.2954" y1="294.445" x2="1194.97" y2="281.609" gradientUnits="userSpaceOnUse">
<stop offset="0.0313603" stop-color="#FD4A81"/>
<stop offset="1" stop-color="#9434E9"/>
</linearGradient>
<linearGradient id="paint42_linear_723_6" x1="-78.2954" y1="294.445" x2="1194.97" y2="281.609" gradientUnits="userSpaceOnUse">
<stop offset="0.0313603" stop-color="#FD4A81"/>
<stop offset="1" stop-color="#9434E9"/>
</linearGradient>
<linearGradient id="paint43_linear_723_6" x1="-78.2954" y1="294.445" x2="1194.97" y2="281.609" gradientUnits="userSpaceOnUse">
<stop offset="0.0313603" stop-color="#FD4A81"/>
<stop offset="1" stop-color="#9434E9"/>
</linearGradient>
<linearGradient id="paint44_linear_723_6" x1="-78.2954" y1="294.445" x2="1194.97" y2="281.609" gradientUnits="userSpaceOnUse">
<stop offset="0.0313603" stop-color="#FD4A81"/>
<stop offset="1" stop-color="#9434E9"/>
</linearGradient>
<linearGradient id="paint45_linear_723_6" x1="-78.2954" y1="294.445" x2="1194.97" y2="281.609" gradientUnits="userSpaceOnUse">
<stop offset="0.0313603" stop-color="#FD4A81"/>
<stop offset="1" stop-color="#9434E9"/>
</linearGradient>
<linearGradient id="paint46_linear_723_6" x1="-78.2954" y1="294.445" x2="1194.97" y2="281.609" gradientUnits="userSpaceOnUse">
<stop offset="0.0313603" stop-color="#FD4A81"/>
<stop offset="1" stop-color="#9434E9"/>
</linearGradient>
<linearGradient id="paint47_linear_723_6" x1="-78.2954" y1="294.445" x2="1194.97" y2="281.609" gradientUnits="userSpaceOnUse">
<stop offset="0.0313603" stop-color="#FD4A81"/>
<stop offset="1" stop-color="#9434E9"/>
</linearGradient>
<linearGradient id="paint48_linear_723_6" x1="-78.2954" y1="294.445" x2="1194.97" y2="281.609" gradientUnits="userSpaceOnUse">
<stop offset="0.0313603" stop-color="#FD4A81"/>
<stop offset="1" stop-color="#9434E9"/>
</linearGradient>
</defs>
</svg>
